HIERARCHY
ROOT Hips
{
	OFFSET 0.000000 0.000000 0.000000 
	CHANNELS 6 Xposition Yposition Zposition Zrotation Yrotation Xrotation
	JOINT LeftUpLeg
	{
		OFFSET 1.363060 -1.794630 0.839290 
		CHANNELS 3 Zrotation Yrotation Xrotation
		JOINT LeftLeg
		{
			OFFSET 2.448110 -6.726130 0.000000 
			CHANNELS 3 Zrotation Yrotation Xrotation
			JOINT LeftFoot
			{
				OFFSET 2.562200 -7.039590 0.000000 
				CHANNELS 3 Zrotation Yrotation Xrotation
				JOINT LeftToeBase
				{
					OFFSET 0.157640 -0.433110 2.322550 
					CHANNELS 3 Zrotation Yrotation Xrotation
					End Site
					{
						OFFSET 0.000000 0.000000 0.000000 
					}
				}
			}
		}
	}
	JOINT RightUpLeg
	{
		OFFSET -1.305520 -1.794630 0.839290 
		CHANNELS 3 Zrotation Yrotation Xrotation
		JOINT RightLeg
		{
			OFFSET -2.542530 -6.985550 0.000000 
			CHANNELS 3 Zrotation Yrotation Xrotation
			JOINT RightFoot
			{
				OFFSET -2.568260 -7.056230 0.000000 
				CHANNELS 3 Zrotation Yrotation Xrotation
				JOINT RightToeBase
				{
					OFFSET -0.164730 -0.452590 2.363150 
					CHANNELS 3 Zrotation Yrotation Xrotation
					End Site
					{
						OFFSET 0.000000 0.000000 0.000000 
					}
				}
			}
		}
	}
	JOINT Spine
	{
		OFFSET 0.028270 2.035590 -0.193380 
		CHANNELS 3 Zrotation Yrotation Xrotation
		JOINT Spine1
		{
			OFFSET 0.056720 2.048850 -0.042750 
			CHANNELS 3 Zrotation Yrotation Xrotation
			JOINT Neck1
			{
				OFFSET -0.054170 1.746240 0.172020 
				CHANNELS 3 Zrotation Yrotation Xrotation
				JOINT Head
				{
					OFFSET 0.104070 1.761360 -0.123970 
					CHANNELS 3 Zrotation Yrotation Xrotation
					End Site
					{
						OFFSET 0.000000 0.000000 0.000000 
					}
				}
			}
			JOINT LeftArm
			{
				OFFSET 3.362410 1.200890 -0.311210 
				CHANNELS 3 Zrotation Yrotation Xrotation
				JOINT LeftForeArm
				{
					OFFSET 4.983000 -0.000000 -0.000000 
					CHANNELS 3 Zrotation Yrotation Xrotation
					JOINT LeftHand
					{
						OFFSET 3.483560 -0.000000 -0.000000 
						CHANNELS 3 Zrotation Yrotation Xrotation
						JOINT LeftHandIndex1
						{
							OFFSET 0.715260 -0.000000 -0.000000 
							CHANNELS 3 Zrotation Yrotation Xrotation
							End Site
							{
								OFFSET 0.000000 0.000000 0.000000 
							}
						}
					}
				}
			}
			JOINT RightArm
			{
				OFFSET -3.136600 1.374050 -0.404650 
				CHANNELS 3 Zrotation Yrotation Xrotation
				JOINT RightForeArm
				{
					OFFSET -5.241900 -0.000000 -0.000000 
					CHANNELS 3 Zrotation Yrotation Xrotation
					JOINT RightHand
					{
						OFFSET -3.444170 -0.000000 -0.000000 
						CHANNELS 3 Zrotation Yrotation Xrotation
						JOINT RightHandIndex1
						{
							OFFSET -0.622530 -0.000000 -0.000000 
							CHANNELS 3 Zrotation Yrotation Xrotation
							End Site
							{
								OFFSET 0.000000 0.000000 0.000000 
							}
						}
					}
				}
			}
		}
	}
}
MOTION
Frames: 12
Frame Time: 0.041667
1.069702 17.780376 -32.919340 -2.753765 4.535880 7.357109 -17.461343 -10.011525 -10.133744 1.582379 9.508014 27.112246 1.118558 -2.490192 -13.193178 0.037400 -1.248200 -3.432000 28.588145 4.513462 -9.913252 -2.285792 -9.393596 27.456326 -0.046367 -8.169372 -20.161536 -0.309500 -3.576600 9.888300 1.019177 -3.055526 -2.474559 1.818951 -1.824654 0.952759 6.198729 -2.112789 8.679807 1.561700 -0.908400 7.152600 -90.474430 6.854736 19.530669 16.358305 -26.586697 -3.490392 0.492102 -0.015773 6.288504 -7.125000 0.000000 0.000000 87.383895 -5.322034 -10.561680 -8.369601 15.583053 -0.772751 1.088022 0.165966 0.203219 7.125000 0.000000 0.000000 
1.060159 17.778245 -32.923198 -2.887305 4.622562 7.379092 -17.241957 -10.111862 -10.205647 1.603919 9.549023 27.237946 1.132150 -2.513861 -13.295301 0.039600 -1.285100 -3.533700 28.799453 4.690031 -9.891539 -2.270698 -9.379157 27.401424 -0.035741 -8.336302 -20.333095 -0.354500 -3.825200 10.585400 1.036357 -3.055260 -2.517458 1.847559 -1.821587 0.795678 6.132052 -2.153841 8.620278 1.507700 -0.931400 7.114100 -90.427830 6.866758 19.605407 16.326255 -26.541439 -3.485474 0.490874 -0.016333 6.172824 -7.125000 0.000000 0.000000 87.442335 -5.458367 -10.718925 -8.357028 15.573601 -0.780860 1.079907 0.134226 0.189414 7.125000 0.000000 0.000000 
1.059550 17.776316 -32.914772 -2.852817 4.728680 7.305670 -17.303673 -10.050249 -10.200575 1.607031 9.552852 27.251927 1.128651 -2.516071 -13.254940 0.050600 -1.452300 -3.994300 28.765382 4.399949 -9.817604 -2.269538 -9.365288 27.372092 -0.049323 -8.213867 -20.269024 -0.348600 -3.793600 10.496600 1.026432 -3.096821 -2.510700 1.846134 -1.842696 0.804614 6.333148 -2.202741 8.433391 1.605600 -0.947200 7.020200 -90.450395 6.934782 19.549393 16.348816 -26.567625 -3.485766 0.491080 -0.016966 6.314330 -7.125000 0.000000 0.000000 87.501664 -5.326188 -11.601845 -8.242547 15.353542 -0.736251 1.086300 0.139207 0.998484 7.125000 0.000000 0.000000 
1.053662 17.779057 -32.913147 -2.892387 4.659485 7.259136 -17.249021 -9.979689 -10.152863 1.626572 9.584678 27.356236 1.149373 -2.576642 -13.376855 0.046600 -1.393100 -3.831000 28.839071 4.538524 -9.669812 -2.249286 -9.330920 27.263685 -0.026473 -8.366208 -20.285022 -0.352400 -3.814100 10.554200 1.029278 -3.084873 -2.507307 1.880777 -1.839145 0.814786 6.332508 -2.204964 8.674854 1.607300 -0.942100 7.130600 -90.412669 6.866968 19.640794 16.314154 -26.524662 -3.477010 0.491224 -0.017728 6.027089 -7.125000 0.000000 0.000000 87.520736 -5.473657 -10.860893 -8.304909 15.469087 -0.759164 1.085543 0.132069 0.415898 7.125000 0.000000 0.000000 
1.050921 17.777737 -32.905229 -2.753633 4.931392 7.246461 -17.364175 -10.140613 -10.132023 1.637176 9.600212 27.404900 1.157209 -2.665566 -13.312959 0.036400 -1.231200 -3.385200 28.711176 4.309561 -9.615081 -2.242317 -9.307245 27.203642 -0.052161 -8.277253 -20.398945 -0.368200 -3.897400 10.788300 1.011035 -3.179927 -2.529698 1.891090 -1.887499 0.799695 6.058707 -2.307261 9.047395 1.463600 -0.998800 7.332200 -90.407170 6.979192 19.716431 16.382756 -26.620318 -3.508065 0.490661 -0.018677 6.204836 -7.125000 0.000000 0.000000 87.588199 -5.442581 -11.521564 -8.222336 15.328924 -0.739500 1.081828 0.105089 0.961538 7.125000 0.000000 0.000000 
1.049398 17.765555 -32.904823 -2.757764 4.854454 7.229241 -17.372439 -10.078872 -10.155730 1.651173 9.633084 27.505817 1.162320 -2.588164 -13.510450 0.058600 -1.561600 -4.295600 28.762206 4.339400 -9.496272 -2.219378 -9.268009 27.078926 0.004742 -8.548501 -20.258473 -0.306000 -3.556600 9.832400 0.990991 -3.181406 -2.517888 1.805426 -1.885143 0.800879 5.920674 -2.505539 8.626854 1.338200 -1.106400 7.106100 -90.341116 6.860713 19.633254 16.385516 -26.620155 -3.500952 0.491282 -0.014710 6.135842 -7.125000 0.000000 0.000000 87.688240 -5.526494 -10.753441 -8.283140 15.406079 -0.751576 1.082435 0.157982 0.889306 7.125000 0.000000 0.000000 
1.044525 17.762205 -32.904924 -2.701151 4.953220 7.273452 -17.401010 -10.195939 -10.206243 1.652107 9.638611 27.517551 1.146003 -2.548903 -13.401821 0.050000 -1.442500 -3.967300 28.732537 4.293581 -9.541634 -2.221065 -9.268061 27.080929 -0.002568 -8.497255 -20.247998 -0.329500 -3.689100 10.203500 1.000577 -3.177577 -2.513388 1.936893 -1.886037 0.875997 5.942278 -2.561371 8.884210 1.359600 -1.128400 7.246500 -90.375959 6.850358 19.899416 16.468874 -26.752046 -3.554081 0.491071 -0.014999 5.914919 -7.125000 0.000000 0.000000 87.685325 -5.524312 -10.687962 -8.320778 15.474192 -0.762839 1.081666 0.168023 0.754349 7.125000 0.000000 0.000000 
1.041683 17.762712 -32.902082 -2.688946 4.943643 7.225459 -17.434346 -10.183723 -10.201337 1.668737 9.668527 27.612842 1.157214 -2.569448 -13.493491 0.063400 -1.625000 -4.470300 28.733517 4.299300 -9.443329 -2.204724 -9.235345 26.982937 0.008303 -8.574585 -20.262258 -0.331900 -3.702800 10.241900 0.974542 -3.186231 -2.540637 1.874765 -1.889258 0.764973 5.952879 -2.598339 8.923309 1.340400 -1.139100 7.241600 -90.313620 6.855963 19.869011 16.439304 -26.694087 -3.523675 0.490299 -0.012785 5.953619 -7.125000 0.000000 0.000000 87.784956 -5.690388 -10.691935 -8.315622 15.459034 -0.759943 1.082795 0.167198 0.738954 7.125000 0.000000 0.000000 
1.038535 17.761799 -32.895889 -2.516912 4.845779 7.336717 -17.609828 -10.313675 -10.184927 1.659209 9.657210 27.571703 1.148312 -2.525442 -13.481895 0.038000 -1.257700 -3.458200 28.510691 4.146502 -9.616012 -2.223950 -9.259340 27.061576 -0.027671 -8.307317 -20.185124 -0.306000 -3.556400 9.831900 0.942031 -3.084305 -2.535973 1.927599 -1.839543 0.903664 5.644498 -2.686929 9.203188 1.167500 -1.191300 7.384400 -90.292894 6.704143 19.881288 16.388081 -26.640226 -3.512095 0.491556 -0.013594 6.038000 -7.125000 0.000000 0.000000 87.789408 -5.652559 -10.768852 -8.282398 15.399381 -0.754417 1.078786 0.168353 0.915479 7.125000 0.000000 0.000000 
1.032140 17.763321 -32.897107 -2.730988 4.895210 7.332602 -17.350314 -10.254373 -10.268801 1.658184 9.657388 27.573838 1.138652 -2.446680 -13.503570 0.071300 -1.722700 -4.740000 28.789582 4.305518 -9.590647 -2.212634 -9.255058 27.037506 0.002242 -8.551047 -20.288280 -0.311800 -3.590000 9.925900 0.949693 -3.171026 -2.585935 1.809053 -1.880904 0.706049 5.887144 -2.672562 9.226478 1.296800 -1.168000 7.391000 -90.212819 6.834948 19.725728 16.407669 -26.650958 -3.520457 0.490450 -0.015433 6.130538 -7.125000 0.000000 0.000000 87.850386 -5.606701 -11.393719 -8.168303 15.193334 -0.715971 1.085389 0.129422 1.460587 7.125000 0.000000 0.000000 
1.031734 17.756520 -32.893960 -2.705237 5.008162 7.328822 -17.394449 -10.181189 -10.375447 1.649926 9.655818 27.560775 1.105153 -2.242884 -13.501188 0.124800 -2.277100 -6.272100 28.763766 4.179597 -9.621174 -2.219019 -9.263700 27.068626 -0.012519 -8.471216 -20.308139 -0.329500 -3.689200 10.204000 0.940372 -3.175560 -2.578467 1.814743 -1.884769 0.761848 5.921326 -2.743846 9.326848 1.291800 -1.192100 7.456800 -90.229721 6.719456 19.704735 16.385321 -26.620830 -3.507201 0.490840 -0.015612 6.349191 -7.125000 0.000000 0.000000 87.859378 -5.640927 -11.346367 -8.165738 15.188851 -0.713240 1.088151 0.128390 1.571616 7.125000 0.000000 0.000000 
1.025541 17.764540 -32.891727 -2.797432 4.998216 7.386263 -17.268572 -10.190761 -10.415486 1.658280 9.668435 27.600226 1.113388 -2.288664 -13.504457 0.139900 -2.410500 -6.641600 28.905118 4.372360 -9.636831 -2.203610 -9.245900 27.001268 0.020739 -8.675818 -20.307655 -0.321400 -3.644000 10.077200 0.963366 -3.192172 -2.593601 1.897573 -1.890982 0.718522 6.403559 -2.755481 8.860043 1.546400 -1.186300 7.173300 -90.270048 6.764503 19.742724 16.401165 -26.645654 -3.514633 0.490661 -0.017420 6.318861 -7.125000 0.000000 0.000000 87.831267 -5.586125 -11.955134 -8.089564 15.060782 -0.683795 1.097059 0.094446 2.312214 7.125000 0.000000 0.000000 
